o Cube
v 1.000000 1.999789 -1.000000
v 1.000000 -0.000211 -1.000000
v 1.000000 1.999789 1.000000
v 1.000000 -0.000211 1.000000
v -1.000000 1.999789 -1.000000
v -1.000000 -0.000211 -1.000000
v -1.000000 1.999789 1.000000
v -1.000000 -0.000211 1.000000
v 1.000000 1.999789 2.002300
v 1.000000 -0.000211 2.002300
v -1.000000 1.999789 2.002300
v -1.000000 -0.000211 2.002300
v 1.000000 1.999789 -1.998116
v 1.000000 -0.000211 -1.998116
v -1.000000 1.999789 -1.998116
v -1.000000 -0.000211 -1.998116
v -1.000000 -0.000211 -0.583245
v -1.000000 -0.000211 0.586425
v -1.000000 1.453799 -0.577063
v -1.000000 1.457991 0.577570
v 0.995237 -0.000211 -1.000000
v 0.995237 -0.000211 -0.583245
v 0.995237 -0.000211 0.586425
v 0.995237 1.453799 -0.577063
v 0.995237 1.457991 0.577570
v 0.746261 1.310380 -1.998116
v -0.506094 1.535850 -1.998116
v -0.758362 0.645954 -1.998116
v 0.669759 0.553161 -1.998116
v 0.746261 1.310380 -1.530260
v -0.506094 1.535850 -1.530260
v -0.758362 0.645954 -1.530260
v 0.669759 0.553161 -1.530260
v 0.746261 1.310380 -1.062816
v -0.506094 1.535850 -1.062816
v -0.758362 0.645954 -1.062816
v 0.669759 0.553161 -1.062816
v -0.768374 1.439651 2.002300
v 0.757751 1.496929 2.002300
v 0.737431 0.612620 2.002300
v -0.639917 0.604866 2.002300
v -0.768374 1.439651 0.781303
v 0.757751 1.496929 0.781303
v 0.737431 0.612620 0.781303
v -0.639917 0.604866 0.781303
v -1.000000 1.353728 -1.852447
v -1.000000 1.270056 -1.089785
v -1.000000 0.727026 -1.154179
v -1.000000 0.553441 -1.858528
v -0.676292 1.439651 0.689221
v 0.849833 1.496929 0.689221
v 0.829512 0.612620 0.689221
v -0.547836 0.604866 0.689221
v -0.907918 1.353728 -1.944529
v -0.907918 1.270056 -1.181867
v -0.907918 0.727026 -1.246261
v -0.907918 0.553441 -1.950610
v -0.632832 1.439651 0.645761
v 0.893293 1.496929 0.645761
v 0.872973 0.612620 0.645761
v -0.504375 0.604866 0.645761
v -0.864458 1.353728 -1.987989
v -0.864458 1.270056 -1.225327
v -0.864458 0.727026 -1.289721
v -0.864458 0.553441 -1.994070
v -1.000000 1.501841 1.158074
v -1.000000 1.354809 1.861523
v -1.000000 0.654357 1.950640
v -1.000000 0.944123 1.161738
v -0.837697 -0.000211 -0.583245
v -0.837697 1.501841 1.158074
v -0.837697 1.354809 1.861523
v -0.837697 0.654357 1.950640
v -0.837697 0.944123 1.161738
vt 0.625000 0.500000
vt 0.875000 0.500000
vt 0.875000 0.750000
vt 0.625000 0.750000
vt 0.625000 0.000000
vt 0.562756 0.000000
vt 0.544377 0.000000
vt 0.456821 0.000000
vt 0.375000 0.000000
vt 0.625000 0.000000
vt 0.375000 0.000000
vt 0.625000 0.250000
vt 0.375000 0.250000
vt 0.375000 0.197906
vt 0.556751 0.197133
vt 0.557275 0.052804
vt 0.375000 0.051697
vt 0.125000 0.500000
vt 0.375000 0.500000
vt 0.375000 0.750000
vt 0.125000 0.750000
vt 0.125000 0.698303
vt 0.125000 0.552094
vt 0.375000 0.500000
vt 0.625000 0.500000
vt 0.375000 0.750000
vt 0.625000 0.750000
vt 0.562142 0.780281
vt 0.451604 0.782821
vt 0.450635 0.954990
vt 0.554983 0.971047
vt 0.625000 1.000000
vt 0.375000 1.000000
vt 0.125000 0.750000
vt 0.875000 0.750000
vt 0.375000 0.250000
vt 0.625000 0.250000
vt 0.538824 0.468283
vt 0.567008 0.311738
vt 0.455771 0.280205
vt 0.533783 0.250000
vt 0.465905 0.250000
vt 0.444207 0.250000
vt 0.125000 0.500000
vt 0.875000 0.500000
vt 0.375000 0.197906
vt 0.556751 0.197133
vt 0.375000 0.051697
vt 0.557275 0.052804
vt 0.375000 0.250000
vt 0.125000 0.698303
vt 0.125000 0.552094
vt 0.444171 0.458720
vt 0.455771 0.280205
vt 0.455771 0.280205
vt 0.444171 0.458720
vt 0.444171 0.458720
vt 0.538824 0.468283
vt 0.567008 0.311738
vt 0.567008 0.311738
vt 0.538824 0.468283
vt 0.450635 0.954990
vt 0.554983 0.971047
vt 0.544242 0.250000
vt 0.544242 0.250000
vt 0.533783 0.250000
vt 0.562142 0.780281
vt 0.451604 0.782821
vt 0.465905 0.250000
vt 0.533783 0.250000
vt 0.465905 0.250000
vt 0.444207 0.250000
vt 0.444207 0.250000
vt 0.544242 0.250000
vt 0.451604 0.782821
vt 0.450635 0.954990
vt 0.554983 0.971047
vt 0.562142 0.780281
vt 0.554983 0.971047
vt 0.450635 0.954990
vt 0.451604 0.782821
vt 0.562142 0.780281
vt 0.493042 0.000000
vt 0.456821 0.000000
vt 0.544377 0.000000
vt 0.562756 0.000000
vt 0.493042 0.000000
vn 0.0000 1.0000 0.0000
vn -1.0000 0.0000 0.0000
vn 0.0000 -1.0000 0.0000
vn 1.0000 0.0000 0.0000
vn 0.0000 0.0000 1.0000
vn 0.0000 0.0000 -1.0000
vn 0.0000 -0.0043 1.0000
vn 0.0000 -1.0000 0.0036
vn 0.0000 -0.0061 -1.0000
vn 0.0648 0.9979 0.0000
vn -0.9949 0.1005 0.0000
vn 0.9621 -0.2727 0.0000
vn -0.1772 -0.9842 0.0000
vn 0.9884 0.1521 0.0000
vn -0.1084 -0.9882 -0.1084
vn -0.9997 0.0230 0.0000
vn -0.0056 1.0000 0.0000
vn 0.0375 -0.9993 0.0000
vn -0.7046 0.0836 -0.7046
vn -0.2327 0.9443 -0.2327
vn 0.7071 -0.0054 0.7071
vn -0.0056 1.0000 -0.0056
vn 0.0375 -0.9986 0.0375
vn 0.7030 0.1082 0.7030
vn -0.7070 0.0162 -0.7070
vn 0.0000 0.9387 0.3448
vn 0.0000 -0.9788 -0.2046
vn 0.0000 0.0066 1.0000
vn 0.0000 -0.1262 -0.9920
s off
f 1/1/1 5/2/1 7/3/1 3/4/1
f 7/5/2 66/6/2 67/7/2 68/8/2 12/9/2 11/10/2
f 8/11/2 7/5/2 5/12/2 6/13/2 17/14/2 19/15/2 20/16/2 18/17/2
f 6/18/3 2/19/3 4/20/3 8/21/3 18/22/3 17/23/3
f 2/19/4 1/1/4 3/4/4 4/20/4
f 1/1/4 2/19/4 14/24/4 13/25/4
f 10/26/5 9/27/5 39/28/5 40/29/5 41/30/5 38/31/5 11/32/5 12/33/5
f 8/21/3 4/20/3 10/26/3 12/34/3
f 3/4/1 7/3/1 11/35/1 9/27/1
f 4/20/4 3/4/4 9/27/4 10/26/4
f 16/36/6 15/37/6 13/25/6 26/38/6 27/39/6 28/40/6
f 6/13/2 5/12/2 47/41/2 48/42/2 49/43/2 16/36/2
f 2/19/3 6/18/3 16/44/3 14/24/3
f 5/2/1 1/1/1 13/25/1 15/45/1
f 19/15/7 17/14/7 22/46/7 24/47/7
f 23/48/2 25/49/2 24/47/2 22/46/2
f 6/13/1 17/14/1 22/46/1 21/50/1
f 20/16/8 19/15/8 24/47/8 25/49/8
f 17/23/1 18/22/1 23/51/1 22/52/1
f 18/17/9 20/16/9 25/49/9 23/48/9
f 33/53/10 32/54/10 36/55/10 37/56/10
f 26/38/11 29/57/11 33/53/11 30/58/11
f 29/57/6 26/38/6 13/25/6 14/24/6 16/36/6 28/40/6
f 28/40/12 27/39/12 31/59/12 32/54/12
f 29/57/10 28/40/10 32/54/10 33/53/10
f 27/39/13 26/38/13 30/58/13 31/59/13
f 36/55/6 35/60/6 34/61/6 37/56/6
f 31/59/13 30/58/13 34/61/13 35/60/13
f 30/58/11 33/53/11 37/56/11 34/61/11
f 32/54/12 31/59/12 35/60/12 36/55/12
f 11/32/5 38/31/5 39/28/5 9/27/5
f 38/31/14 41/30/14 45/62/14 42/63/14
f 47/41/15 46/64/15 54/65/15 55/66/15
f 40/29/16 39/28/16 43/67/16 44/68/16
f 41/30/17 40/29/17 44/68/17 45/62/17
f 39/28/18 38/31/18 42/63/18 43/67/18
f 56/69/19 55/66/19 63/70/19 64/71/19
f 16/36/2 49/43/2 46/64/2 47/41/2 5/12/2 15/37/2
f 49/43/20 48/42/20 56/69/20 57/72/20
f 54/65/21 57/72/21 65/73/21 62/74/21
f 45/62/22 44/68/22 52/75/22 53/76/22
f 46/64/21 49/43/21 57/72/21 54/65/21
f 43/67/23 42/63/23 50/77/23 51/78/23
f 48/42/19 47/41/19 55/66/19 56/69/19
f 42/63/24 45/62/24 53/76/24 50/77/24
f 44/68/25 43/67/25 51/78/25 52/75/25
f 58/79/5 61/80/5 60/81/5 59/82/5
f 62/74/2 65/73/2 64/71/2 63/70/2
f 50/77/24 53/76/24 61/80/24 58/79/24
f 52/75/25 51/78/25 59/82/25 60/81/25
f 57/72/20 56/69/20 64/71/20 65/73/20
f 55/66/15 54/65/15 62/74/15 63/70/15
f 53/76/22 52/75/22 60/81/22 61/80/22
f 51/78/23 50/77/23 58/79/23 59/82/23
f 74/83/2 73/84/2 72/85/2 71/86/2
f 12/9/2 68/8/2 69/87/2 66/6/2 7/5/2 8/11/2
f 69/87/26 68/8/26 73/84/26 74/83/26
f 67/7/27 66/6/27 71/86/27 72/85/27
f 66/6/28 69/87/28 74/83/28 71/86/28
f 68/8/29 67/7/29 72/85/29 73/84/29
l 17 70
